<?xml version="1.0" encoding="utf-8"?>
<!-- Generator: Adobe Illustrator 23.0.3, SVG Export Plug-In . SVG Version: 6.00 Build 0)  -->
<svg version="1.1" id="Layer_1" xmlns:serif="http://www.serif.com/"
	 xmlns="http://www.w3.org/2000/svg" xmlns:xlink="http://www.w3.org/1999/xlink" x="0px" y="0px" viewBox="30 40 70 25">
<style type="text/css">
	.st0{fill:#1FBAD6;}
</style>
<path class="st0" d="M36.2,46.5l-0.5,2.8c-0.3-0.1-0.6-0.1-1-0.2c-0.6,0-1.1,0.2-1.5,0.7c-0.4,0.6-0.7,1.3-0.8,2v5.6h-2.9V46.6H32
	l0.3,2.1c0.2-0.7,0.6-1.3,1.1-1.8c0.5-0.4,1.1-0.6,1.7-0.6C35.5,46.3,35.9,46.4,36.2,46.5z"/>
<path class="st0" d="M45.5,52.9h-6.8c0.1,1,0.4,1.7,0.8,2.1c0.5,0.4,1.1,0.6,1.8,0.6c0.4,0,0.9-0.1,1.3-0.2c0.5-0.2,0.9-0.4,1.3-0.7
	l1.2,1.6c-1.1,1-2.6,1.5-4.1,1.5c-1.7,0-3-0.5-3.9-1.5s-1.4-2.4-1.4-4.1c0-1,0.2-2,0.6-3c0.4-0.8,0.9-1.6,1.7-2.1s1.7-0.8,2.6-0.8
	c1.5,0,2.7,0.5,3.6,1.4s1.3,2.3,1.3,4C45.6,51.9,45.5,52.3,45.5,52.9z M42.7,51c0-1.8-0.6-2.7-1.9-2.7c-0.5,0-1.1,0.2-1.4,0.7
	c-0.3,0.4-0.5,1.2-0.6,2.1L42.7,51L42.7,51z"/>
<path class="st0" d="M47.7,57c-0.5-0.6-0.8-1.4-0.7-2.2V42.3l2.9-0.3v12.7c0,0.5,0.2,0.7,0.6,0.7c0.2,0,0.4,0,0.6-0.1l0.6,2.1
	c-0.6,0.2-1.2,0.4-1.9,0.4C49,57.8,48.2,57.5,47.7,57z"/>
<path class="st0" d="M60.7,47.8c0.9,1,1.4,2.4,1.4,4.2c0,1-0.2,2.1-0.6,3c-0.4,0.8-1,1.5-1.8,2s-1.8,0.7-2.8,0.7
	c-1.6,0-2.9-0.5-3.8-1.5c-0.9-1-1.4-2.4-1.4-4.2c0-1,0.2-2.1,0.6-3c0.4-0.8,1-1.5,1.8-2s1.8-0.7,2.8-0.7
	C58.5,46.3,59.8,46.8,60.7,47.8z M55.2,49.3c-0.4,0.6-0.5,1.5-0.5,2.7s0.2,2.1,0.5,2.7c0.4,0.5,1,0.9,1.6,0.9s1.3-0.3,1.6-0.9
	c0.4-0.6,0.5-1.5,0.5-2.7s-0.2-2.1-0.5-2.7c-0.3-0.6-1-0.9-1.6-0.9C56.2,48.4,55.6,48.8,55.2,49.3z"/>
<path class="st0" d="M71.9,55.3c0.1,0.2,0.4,0.4,0.6,0.4l-0.6,1.9c-0.5,0-1.1-0.2-1.6-0.4c-0.4-0.3-0.7-0.7-0.9-1.1
	c-0.7,1.1-1.8,1.6-3.2,1.6c-0.9,0-1.9-0.3-2.6-0.9c-0.6-0.6-1-1.5-0.9-2.4c-0.1-1.1,0.4-2.1,1.3-2.7c0.9-0.6,2.1-0.9,3.7-0.9h1.2
	v-0.5c0-0.7-0.1-1.1-0.4-1.4c-0.4-0.3-1-0.4-1.5-0.4c-1,0-1.9,0.2-2.8,0.6l-0.7-1.9c1.3-0.5,2.6-0.8,4-0.8c1.5,0,2.5,0.3,3.2,0.9
	s1,1.6,1,2.8v4.4C71.6,54.7,71.7,55.1,71.9,55.3z M68.8,54.4v-2h-1c-1.6,0-2.3,0.6-2.3,1.8c0,0.4,0.1,0.8,0.4,1.1s0.6,0.4,1,0.4
	C67.7,55.7,68.5,55.2,68.8,54.4z"/>
<path class="st0" d="M83.3,42.3v15.1h-2.5l-0.2-1.3c-0.7,1.1-1.8,1.7-3.1,1.7c-1.2,0.1-2.4-0.5-3-1.5c-0.7-1-1-2.4-1-4.2
	c0-1,0.2-2,0.5-3c0.3-0.8,0.8-1.5,1.5-2s1.5-0.7,2.3-0.7c1,0,1.9,0.4,2.6,1.1V42L83.3,42.3z M79.5,55.3c0.4-0.3,0.7-0.6,0.9-1v-4.8
	c-0.2-0.3-0.5-0.6-0.9-0.8c-0.3-0.2-0.7-0.3-1-0.3c-0.6,0-1.2,0.3-1.6,0.9c-0.4,0.6-0.6,1.5-0.6,2.7c0,1.3,0.2,2.2,0.5,2.7
	s0.8,0.8,1.4,0.8C78.7,55.6,79.1,55.5,79.5,55.3z"/>
<path class="st0" d="M86.2,57c-0.5-0.6-0.8-1.4-0.7-2.2V42.3l2.9-0.3v12.7c0,0.5,0.2,0.7,0.6,0.7c0.2,0,0.4,0,0.6-0.1l0.6,2.1
	c-0.6,0.2-1.2,0.4-1.9,0.4C87.5,57.8,86.7,57.5,86.2,57z"/>
<path class="st0" d="M96.3,57.4c-0.3,1.2-1.1,2.3-2,3.2c-0.9,0.7-2.2,1.2-3.8,1.3l-0.3-2.1c0.8-0.1,1.6-0.3,2.3-0.7
	c0.5-0.4,1-1,1.2-1.7h-1l-3.4-10.8h3.1l2.2,8.9l2.3-8.9h3L96.3,57.4z"/>
</svg>
